<svg width="28" height="20" viewBox="0 0 28 20" fill="none" xmlns="http://www.w3.org/2000/svg">
<path d="M17.7188 0.936175C16.9896 1.56117 16.941 2.18617 17.5729 2.81117L23.1875 8.68617H1.53125C0.510417 8.68617 0 9.12367 0 9.99867C0 10.8737 0.510417 11.3112 1.53125 11.3112H23.1875L17.5729 17.1862C17.2812 17.4778 17.1597 17.8112 17.2083 18.1862C17.2569 18.5612 17.4271 18.8528 17.7188 19.0612C18.059 19.3112 18.4479 19.4153 18.8854 19.3737C19.3229 19.332 19.6632 19.1862 19.9062 18.9362L28 9.99867L19.9062 1.18617C19.2743 0.519508 18.5451 0.436175 17.7188 0.936175Z" fill="white"/>
</svg>
