<svg width="140" height="140" viewBox="0 0 140 140" fill="none" xmlns="http://www.w3.org/2000/svg">
<circle cx="70" cy="70" r="69" stroke="#FEC739" stroke-width="2"/>
<circle cx="70" cy="70" r="69" stroke="url(#paint0_linear)" stroke-width="2"/>
<path d="M57.8403 38.9069C57.8403 38.6955 57.7564 38.4928 57.6069 38.3434C57.4575 38.1939 57.2548 38.11 57.0435 38.11C56.8321 38.11 56.6294 38.1939 56.48 38.3434C56.3305 38.4928 56.2466 38.6955 56.2466 38.9069V43.0959H57.8403V38.9069Z" fill="url(#paint1_linear)"/>
<path d="M67.1634 49.968H46.9238V89.5568H67.1634V49.968ZM62.8158 85.2602H51.2714C51.0601 85.2602 50.8574 85.1762 50.708 85.0268C50.5585 84.8773 50.4746 84.6746 50.4746 84.4633C50.4746 84.2519 50.5585 84.0492 50.708 83.8998C50.8574 83.7504 51.0601 83.6664 51.2714 83.6664H62.8158C63.0271 83.6664 63.2298 83.7504 63.3793 83.8998C63.5287 84.0492 63.6126 84.2519 63.6126 84.4633C63.6126 84.6746 63.5287 84.8773 63.3793 85.0268C63.2298 85.1762 63.0271 85.2602 62.8158 85.2602ZM62.8158 79.1085H51.2714C51.0601 79.1085 50.8574 79.0246 50.708 78.8751C50.5585 78.7257 50.4746 78.523 50.4746 78.3117C50.4746 78.1003 50.5585 77.8976 50.708 77.7482C50.8574 77.5988 51.0601 77.5148 51.2714 77.5148H62.8158C63.0271 77.5148 63.2298 77.5988 63.3793 77.7482C63.5287 77.8976 63.6126 78.1003 63.6126 78.3117C63.6126 78.523 63.5287 78.7257 63.3793 78.8751C63.2298 79.0246 63.0271 79.1085 62.8158 79.1085ZM62.8158 72.9569H51.2714C51.0601 72.9569 50.8574 72.873 50.708 72.7235C50.5585 72.5741 50.4746 72.3714 50.4746 72.1601C50.4746 71.9487 50.5585 71.746 50.708 71.5966C50.8574 71.4471 51.0601 71.3632 51.2714 71.3632H62.8158C63.0271 71.3632 63.2298 71.4471 63.3793 71.5966C63.5287 71.746 63.6126 71.9487 63.6126 72.1601C63.6126 72.3714 63.5287 72.5741 63.3793 72.7235C63.2298 72.873 63.0271 72.9569 62.8158 72.9569ZM62.8158 66.8055H51.2714C51.0601 66.8055 50.8574 66.7215 50.708 66.5721C50.5585 66.4226 50.4746 66.2199 50.4746 66.0086C50.4746 65.7972 50.5585 65.5946 50.708 65.4451C50.8574 65.2957 51.0601 65.2117 51.2714 65.2117H62.8158C63.0271 65.2117 63.2298 65.2957 63.3793 65.4451C63.5287 65.5946 63.6126 65.7972 63.6126 66.0086C63.6126 66.2199 63.5287 66.4226 63.3793 66.5721C63.2298 66.7215 63.0271 66.8055 62.8158 66.8055ZM62.8158 60.6538H51.2714C51.0601 60.6538 50.8574 60.5699 50.708 60.4204C50.5585 60.271 50.4746 60.0683 50.4746 59.857C50.4746 59.6456 50.5585 59.4429 50.708 59.2935C50.8574 59.1441 51.0601 59.0601 51.2714 59.0601H62.8158C63.0271 59.0601 63.2298 59.1441 63.3793 59.2935C63.5287 59.4429 63.6126 59.6456 63.6126 59.857C63.6126 60.0683 63.5287 60.271 63.3793 60.4204C63.2298 60.5699 63.0271 60.6538 62.8158 60.6538Z" fill="url(#paint2_linear)"/>
<path d="M49.9995 43.9767H64.0876V48.3743H49.9995V43.9767Z" fill="url(#paint3_linear)"/>
<path d="M71.8259 84.3316C71.8259 84.1758 71.8716 84.0234 71.9573 83.8933C72.043 83.7632 72.165 83.661 72.3081 83.5995L72.378 83.5695C75.8469 82.0769 79.1385 80.202 82.1919 77.9797V60.6537H68.7568V89.5568H71.8259V84.3316ZM71.6176 66.9151H79.0608C79.2722 66.9151 79.4749 66.999 79.6243 67.1485C79.7737 67.2979 79.8577 67.5006 79.8577 67.7119C79.8577 67.9233 79.7737 68.126 79.6243 68.2754C79.4749 68.4249 79.2722 68.5088 79.0608 68.5088H71.6176C71.4063 68.5088 71.2036 68.4249 71.0541 68.2754C70.9047 68.126 70.8207 67.9233 70.8207 67.7119C70.8207 67.5006 70.9047 67.2979 71.0541 67.1485C71.2036 66.999 71.4063 66.9151 71.6176 66.9151ZM71.6176 71.4262H79.0608C79.2722 71.4262 79.4749 71.5101 79.6243 71.6596C79.7737 71.809 79.8577 72.0117 79.8577 72.2231C79.8577 72.4344 79.7737 72.6371 79.6243 72.7865C79.4749 72.936 79.2722 73.0199 79.0608 73.0199H71.6176C71.4063 73.0199 71.2036 72.936 71.0541 72.7865C70.9047 72.6371 70.8207 72.4344 70.8207 72.2231C70.8207 72.0117 70.9047 71.809 71.0541 71.6596C71.2036 71.5101 71.4063 71.4262 71.6176 71.4262ZM70.8207 76.7342C70.8207 76.5228 70.9047 76.3201 71.0541 76.1707C71.2036 76.0212 71.4063 75.9373 71.6176 75.9373H79.0608C79.2722 75.9373 79.4749 76.0212 79.6243 76.1707C79.7737 76.3201 79.8577 76.5228 79.8577 76.7342C79.8577 76.9455 79.7737 77.1482 79.6243 77.2976C79.4749 77.4471 79.2722 77.531 79.0608 77.531H71.6176C71.5129 77.531 71.4093 77.5104 71.3125 77.4703C71.2158 77.4302 71.128 77.3715 71.054 77.2974C70.98 77.2234 70.9213 77.1355 70.8812 77.0387C70.8412 76.942 70.8207 76.8383 70.8207 76.7336V76.7342Z" fill="url(#paint4_linear)"/>
<path d="M73.4199 90.4953C73.4199 98.2631 81.6125 101.395 83.0684 101.891C84.839 101.295 86.515 100.448 88.045 99.3764C91.3835 97.0028 93.0762 94.0149 93.0762 90.496V84.8541C89.6044 83.3248 86.309 81.4228 83.248 79.1817C80.1871 81.4229 76.8917 83.3248 73.4199 84.8541V90.4953ZM78.861 90.2164C79.0104 90.067 79.2131 89.983 79.4244 89.983C79.6358 89.983 79.8385 90.067 79.9879 90.2164L81.7593 91.9877L86.5086 87.2382C86.6584 87.0908 86.8605 87.0086 87.0707 87.0094C87.2809 87.0103 87.4823 87.0942 87.6309 87.2428C87.7796 87.3915 87.8635 87.5928 87.8643 87.803C87.8652 88.0133 87.7829 88.2153 87.6355 88.3652L82.323 93.6777C82.1736 93.8271 81.9709 93.911 81.7596 93.911C81.5482 93.911 81.3455 93.8271 81.1961 93.6777L78.8612 91.3428C78.7118 91.1934 78.6278 90.9907 78.6277 90.7794C78.6277 90.5681 78.7116 90.3654 78.861 90.2159V90.2164Z" fill="url(#paint5_linear)"/>
<defs>
<linearGradient id="paint0_linear" x1="70" y1="0" x2="70" y2="140" gradientUnits="userSpaceOnUse">
<stop stop-color="#DF7A03"/>
<stop offset="1" stop-color="#FEC739"/>
</linearGradient>
<linearGradient id="paint1_linear" x1="57.0435" y1="38.11" x2="57.0435" y2="43.0959" gradientUnits="userSpaceOnUse">
<stop stop-color="#FEC739"/>
<stop offset="1" stop-color="#DF7A03"/>
</linearGradient>
<linearGradient id="paint2_linear" x1="57.0436" y1="49.968" x2="57.0436" y2="89.5568" gradientUnits="userSpaceOnUse">
<stop stop-color="#FEC739"/>
<stop offset="1" stop-color="#DF7A03"/>
</linearGradient>
<linearGradient id="paint3_linear" x1="57.0436" y1="43.9767" x2="57.0436" y2="48.3743" gradientUnits="userSpaceOnUse">
<stop stop-color="#FEC739"/>
<stop offset="1" stop-color="#DF7A03"/>
</linearGradient>
<linearGradient id="paint4_linear" x1="75.4744" y1="60.6537" x2="75.4744" y2="89.5568" gradientUnits="userSpaceOnUse">
<stop stop-color="#FEC739"/>
<stop offset="1" stop-color="#DF7A03"/>
</linearGradient>
<linearGradient id="paint5_linear" x1="83.248" y1="79.1817" x2="83.248" y2="101.891" gradientUnits="userSpaceOnUse">
<stop stop-color="#FEC739"/>
<stop offset="1" stop-color="#DF7A03"/>
</linearGradient>
</defs>
</svg>
