<svg width="17" height="17" viewBox="0 0 17 17" fill="none" xmlns="http://www.w3.org/2000/svg">
<path d="M2.37798 4.29738C3.4397 4.29738 4.30039 3.44023 4.30039 2.38288C4.30039 1.32553 3.4397 0.468384 2.37798 0.468384C1.31626 0.468384 0.455566 1.32553 0.455566 2.38288C0.455566 3.44023 1.31626 4.29738 2.37798 4.29738Z" fill="#0B0802"/>
<path d="M6.1157 5.43489V16.0565H9.4272V10.8039C9.4272 9.41789 9.68903 8.07564 11.4146 8.07564C13.1165 8.07564 13.1376 9.66027 13.1376 10.8914V16.0574H16.4509V10.2325C16.4509 7.37127 15.8323 5.17239 12.4742 5.17239C10.862 5.17239 9.78128 6.05352 9.33934 6.88739H9.29453V5.43489H6.1157ZM0.719238 5.43489H4.03601V16.0565H0.719238V5.43489Z" fill="#0B0802"/>
</svg>
