<svg width="16" height="16" viewBox="0 0 16 16" fill="none" xmlns="http://www.w3.org/2000/svg">
<path d="M7.99984 5.65685C6.70961 5.65685 5.65668 6.70978 5.65668 8.00001C5.65668 9.29025 6.70961 10.3432 7.99984 10.3432C9.29007 10.3432 10.343 9.29025 10.343 8.00001C10.343 6.70978 9.29007 5.65685 7.99984 5.65685ZM15.0276 8.00001C15.0276 7.0297 15.0364 6.06817 14.9819 5.09962C14.9274 3.97462 14.6707 2.97618 13.8481 2.15353C13.0237 1.32911 12.027 1.07423 10.902 1.01974C9.93168 0.965245 8.97015 0.974034 8.0016 0.974034C7.03128 0.974034 6.06976 0.965245 5.10121 1.01974C3.97621 1.07423 2.97777 1.33087 2.15511 2.15353C1.3307 2.97794 1.07582 3.97462 1.02132 5.09962C0.966831 6.06993 0.975621 7.03146 0.975621 8.00001C0.975621 8.96857 0.966831 9.93185 1.02132 10.9004C1.07582 12.0254 1.33246 13.0238 2.15511 13.8465C2.97953 14.6709 3.97621 14.9258 5.10121 14.9803C6.07152 15.0348 7.03304 15.026 8.0016 15.026C8.97191 15.026 9.93343 15.0348 10.902 14.9803C12.027 14.9258 13.0254 14.6692 13.8481 13.8465C14.6725 13.0221 14.9274 12.0254 14.9819 10.9004C15.0381 9.93185 15.0276 8.97032 15.0276 8.00001ZM7.99984 11.6053C6.00472 11.6053 4.39457 9.99513 4.39457 8.00001C4.39457 6.00489 6.00472 4.39474 7.99984 4.39474C9.99496 4.39474 11.6051 6.00489 11.6051 8.00001C11.6051 9.99513 9.99496 11.6053 7.99984 11.6053ZM11.7528 5.08907C11.287 5.08907 10.9108 4.7129 10.9108 4.24708C10.9108 3.78126 11.287 3.40509 11.7528 3.40509C12.2186 3.40509 12.5948 3.78126 12.5948 4.24708C12.5949 4.35769 12.5732 4.46724 12.531 4.56946C12.4887 4.67168 12.4267 4.76455 12.3485 4.84277C12.2702 4.92098 12.1774 4.983 12.0752 5.02526C11.9729 5.06753 11.8634 5.08921 11.7528 5.08907Z" fill="#0B0802"/>
</svg>
