<svg width="140" height="140" viewBox="0 0 140 140" fill="none" xmlns="http://www.w3.org/2000/svg">
<circle cx="70" cy="70" r="69" stroke="#FEC739" stroke-width="2"/>
<circle cx="70" cy="70" r="69" stroke="url(#paint0_linear)" stroke-width="2"/>
<path d="M49.8126 57.625H44.5625C43.838 57.625 43.25 58.241 43.25 59C43.25 59.759 43.838 60.3751 44.5625 60.3751H49.8126C50.5371 60.3751 51.1251 59.759 51.1251 59C51.1251 58.241 50.5371 57.625 49.8126 57.625Z" fill="url(#paint1_linear)"/>
<path d="M91.752 61.3348C91.5025 60.5125 86.494 49.3943 84.6198 48.2007C82.6694 46.9577 71.0013 46.625 69.4998 46.625C67.9983 46.625 56.3302 46.9577 54.3798 48.2007C52.5055 49.3915 47.497 60.5125 47.2476 61.3348C47.0271 62.058 47.413 62.8307 48.1034 63.0617C48.8017 63.29 49.5341 62.8885 49.7519 62.1652C50.164 60.7984 54.7157 51.4924 55.7158 50.5684C56.8263 50.0129 65.0032 49.375 69.4998 49.375C73.9964 49.375 82.1733 50.0129 83.1918 50.5025C84.2812 51.4925 88.8356 60.7985 89.2477 62.1653C89.4263 62.751 89.9433 63.125 90.4998 63.125C90.6311 63.125 90.765 63.1058 90.8989 63.0617C91.5866 62.8307 91.9725 62.0579 91.752 61.3348Z" fill="url(#paint2_linear)"/>
<path d="M49.8125 85.1248C49.1982 85.1248 48.7047 85.5759 48.563 86.1726L40.625 84.0936V83.7498C40.625 82.9908 40.0369 82.3748 39.3124 82.3748C38.5879 82.3748 38 82.9909 38 83.7499V89.25C38 91.5243 39.7666 93.375 41.9375 93.375H47.1875C49.3585 93.375 51.125 91.5243 51.125 89.25V86.4999C51.125 85.7409 50.537 85.1248 49.8125 85.1248Z" fill="url(#paint3_linear)"/>
<path d="M99.6876 82.375C98.9631 82.375 98.3751 82.991 98.3751 83.75V84.0938L90.4371 86.1728C90.2953 85.5761 89.8018 85.1251 89.1875 85.1251C88.463 85.1251 87.875 85.7411 87.875 86.5001V89.2501C87.875 91.5244 89.6416 93.3751 91.8125 93.3751H97.0627C99.2336 93.3751 101 91.5244 101 89.2501V83.75C101 82.991 100.412 82.375 99.6876 82.375Z" fill="url(#paint4_linear)"/>
<path d="M94.4376 57.625H89.1875C88.463 57.625 87.875 58.241 87.875 59C87.875 59.759 88.463 60.3751 89.1875 60.3751H94.4376C95.1621 60.3751 95.7501 59.759 95.7501 59C95.7501 58.241 95.1621 57.625 94.4376 57.625Z" fill="url(#paint5_linear)"/>
<path d="M100.898 70.5967L97.3172 71.3474C96.8762 71.419 88.0615 72.7499 85.8276 72.7499C85.5073 73.0166 85.2187 74.7821 85.2527 76.435C93.2537 76.039 99.4829 75.5137 99.5827 75.5054L100.998 75.3047C100.995 73.4815 100.969 71.9249 100.898 70.5967Z" fill="url(#paint6_linear)"/>
<path d="M98.7447 64.5523C98.1567 64.3735 97.8496 63.9253 97.2668 63.0123L96.8179 62.3248C96.033 61.178 94.5158 61.1285 93.0484 61.0846C92.6074 61.0708 91.9091 61.0489 91.5783 60.9691C91.4655 60.7958 91.3132 60.65 91.1295 60.5456C88.6805 59.1347 79.401 57.625 69.4995 57.625C59.5981 57.625 50.3186 59.1348 47.8695 60.5455C47.6858 60.65 47.5335 60.7957 47.418 60.9718C47.0873 61.0516 46.389 61.0735 45.948 61.0873C44.4833 61.1312 42.966 61.178 42.1812 62.3248L41.7323 63.0151C41.1495 63.9281 40.8424 64.3763 40.2544 64.5551C39.2253 64.8713 38.661 65.9768 38.3486 67.9871L40.9421 68.6663C40.9841 68.6663 49.5469 70.0001 52.437 70.0001C53.4293 70.0001 54.3034 70.3961 54.9649 71.1442C56.3562 72.7199 56.4218 75.481 56.3877 76.5562C60.6113 76.7404 65.1709 76.8752 69.4995 76.8752C73.8334 76.8752 78.3957 76.7405 82.6246 76.5562C82.5957 75.3407 82.6614 72.2965 83.9608 70.8581C84.4701 70.2971 85.1131 70.0001 85.8271 70.0001C87.5256 70.0001 94.3794 69.0184 96.8758 68.6389L100.632 67.8496C100.317 65.9218 99.7527 64.8602 98.7447 64.5523ZM78.6871 74.125H60.312C59.5875 74.125 58.9995 73.509 58.9995 72.75C58.9995 71.991 59.5875 71.3749 60.312 71.3749H78.687C79.4115 71.3749 79.9995 71.991 79.9995 72.75C79.9995 73.509 79.4116 74.125 78.6871 74.125Z" fill="url(#paint7_linear)"/>
<path d="M99.8609 78.2391C99.6325 78.2583 83.3917 79.6251 69.5002 79.6251C55.6087 79.6251 39.3679 78.2583 39.2077 78.2473L38.0684 78.1236C38.2101 81.1074 38.6485 85.5816 40.0082 86.3406C41.4257 87.1299 57.824 87.8751 69.5001 87.8751C81.1761 87.8751 97.5744 87.1299 98.9894 86.3379C100.354 85.5762 100.793 81.0717 100.932 78.0879L99.8609 78.2391Z" fill="url(#paint8_linear)"/>
<path d="M53.036 73.0086C52.8732 72.8244 52.6999 72.7502 52.4375 72.7502C49.34 72.7502 40.7929 71.4164 40.4307 71.3615L38.0918 70.751C38.0262 72.0543 38.0026 73.5806 38 75.3488L39.4464 75.5056C39.5305 75.5138 45.7569 76.0363 53.7579 76.4351C53.7841 75.4424 53.6581 73.7126 53.036 73.0086Z" fill="url(#paint9_linear)"/>
<defs>
<linearGradient id="paint0_linear" x1="70" y1="0" x2="70" y2="140" gradientUnits="userSpaceOnUse">
<stop stop-color="#DF7A03"/>
<stop offset="1" stop-color="#FEC739"/>
</linearGradient>
<linearGradient id="paint1_linear" x1="47.1876" y1="57.625" x2="47.1876" y2="60.3751" gradientUnits="userSpaceOnUse">
<stop stop-color="#FEC739"/>
<stop offset="1" stop-color="#DF7A03"/>
</linearGradient>
<linearGradient id="paint2_linear" x1="69.4998" y1="46.625" x2="69.4998" y2="63.1257" gradientUnits="userSpaceOnUse">
<stop stop-color="#FEC739"/>
<stop offset="1" stop-color="#DF7A03"/>
</linearGradient>
<linearGradient id="paint3_linear" x1="44.5625" y1="82.3748" x2="44.5625" y2="93.375" gradientUnits="userSpaceOnUse">
<stop stop-color="#FEC739"/>
<stop offset="1" stop-color="#DF7A03"/>
</linearGradient>
<linearGradient id="paint4_linear" x1="94.4376" y1="82.375" x2="94.4376" y2="93.3751" gradientUnits="userSpaceOnUse">
<stop stop-color="#FEC739"/>
<stop offset="1" stop-color="#DF7A03"/>
</linearGradient>
<linearGradient id="paint5_linear" x1="91.8126" y1="57.625" x2="91.8126" y2="60.3751" gradientUnits="userSpaceOnUse">
<stop stop-color="#FEC739"/>
<stop offset="1" stop-color="#DF7A03"/>
</linearGradient>
<linearGradient id="paint6_linear" x1="93.1238" y1="70.5967" x2="93.1238" y2="76.435" gradientUnits="userSpaceOnUse">
<stop stop-color="#FEC739"/>
<stop offset="1" stop-color="#DF7A03"/>
</linearGradient>
<linearGradient id="paint7_linear" x1="69.4904" y1="57.625" x2="69.4904" y2="76.8752" gradientUnits="userSpaceOnUse">
<stop stop-color="#FEC739"/>
<stop offset="1" stop-color="#DF7A03"/>
</linearGradient>
<linearGradient id="paint8_linear" x1="69.5001" y1="78.0879" x2="69.5001" y2="87.8751" gradientUnits="userSpaceOnUse">
<stop stop-color="#FEC739"/>
<stop offset="1" stop-color="#DF7A03"/>
</linearGradient>
<linearGradient id="paint9_linear" x1="45.8805" y1="70.751" x2="45.8805" y2="76.4351" gradientUnits="userSpaceOnUse">
<stop stop-color="#FEC739"/>
<stop offset="1" stop-color="#DF7A03"/>
</linearGradient>
</defs>
</svg>
