<svg width="140" height="140" viewBox="0 0 140 140" fill="none" xmlns="http://www.w3.org/2000/svg">
<circle cx="70" cy="70" r="69" stroke="#FEC739" stroke-width="2"/>
<circle cx="70" cy="70" r="69" stroke="url(#paint0_linear)" stroke-width="2"/>
<g clip-path="url(#clip0)">
<path d="M69.9998 61.7856H65.8569V70.4999H69.9998C72.2836 70.4999 74.1427 68.5446 74.1427 66.1427C74.1427 63.7408 72.2836 61.7856 69.9998 61.7856Z" fill="url(#paint1_linear)"/>
<path d="M94.8571 40H45.1429C42.855 40 41 41.951 41 44.3572V96.6428C41 99.049 42.855 101 45.1429 101H94.8571C97.145 101 99 99.049 99 96.6428V44.3572C99 41.951 97.145 40 94.8571 40V40ZM70 79.2142H65.8571V87.9285H57.5714V53.0714H70C76.8536 53.0714 82.4286 58.9348 82.4286 66.1428C82.4286 73.3509 76.8536 79.2142 70 79.2142Z" fill="url(#paint2_linear)"/>
</g>
<defs>
<linearGradient id="paint0_linear" x1="70" y1="0" x2="70" y2="140" gradientUnits="userSpaceOnUse">
<stop stop-color="#DF7A03"/>
<stop offset="1" stop-color="#FEC739"/>
</linearGradient>
<linearGradient id="paint1_linear" x1="69.9998" y1="61.7856" x2="69.9998" y2="70.4999" gradientUnits="userSpaceOnUse">
<stop stop-color="#FEC739"/>
<stop offset="1" stop-color="#DF7A03"/>
</linearGradient>
<linearGradient id="paint2_linear" x1="70" y1="40" x2="70" y2="101" gradientUnits="userSpaceOnUse">
<stop stop-color="#FEC739"/>
<stop offset="1" stop-color="#DF7A03"/>
</linearGradient>
<clipPath id="clip0">
<rect x="41" y="40" width="58" height="61" fill="white"/>
</clipPath>
</defs>
</svg>
