<svg width="140" height="140" viewBox="0 0 140 140" fill="none" xmlns="http://www.w3.org/2000/svg">
<circle cx="70" cy="70" r="69" stroke="#FEC739" stroke-width="2"/>
<circle cx="70" cy="70" r="69" stroke="url(#paint0_linear)" stroke-width="2"/>
<g clip-path="url(#clip0)">
<path d="M63.6509 93.8216H76.3477C75.0717 92.4089 74.3207 90.3054 74.1706 87.6074H65.828C65.6779 90.3054 64.9269 92.4089 63.6509 93.8216Z" fill="url(#paint1_linear)"/>
<path d="M83.4644 95.8928H81.3929H58.6073H56.5358C55.9651 95.8928 55.5 96.3579 55.5 96.9286C55.5 97.4992 55.9651 97.9643 56.5358 97.9643H83.4644C84.0351 97.9643 84.5001 97.4992 84.5001 96.9286C84.5001 96.3579 84.0351 95.8928 83.4644 95.8928Z" fill="url(#paint2_linear)"/>
<path d="M44.1073 79.3213H41V83.4631C41 84.6065 41.929 85.5355 43.0724 85.5355H64.8214H75.1786H96.9276C98.071 85.5355 99 84.6065 99 83.4631V79.3213H95.8927H44.1073ZM73.1071 83.4643H66.8929C66.321 83.4643 65.8571 83.0004 65.8571 82.4285C65.8571 81.8567 66.321 81.3928 66.8929 81.3928H73.1071C73.679 81.3928 74.1429 81.8567 74.1429 82.4285C74.1429 83.0004 73.679 83.4643 73.1071 83.4643Z" fill="url(#paint3_linear)"/>
<path d="M71.0358 68.9644C71.0358 69.5362 70.572 70.0001 70.0001 70.0001C69.4282 70.0001 68.9643 69.5362 68.9643 68.9644V66.515L58.6074 61.6409V67.2886L70.0004 72.9849L81.3934 67.2886V61.6409L71.0361 66.515C71.0358 66.5147 71.0358 68.9644 71.0358 68.9644Z" fill="url(#paint4_linear)"/>
<path d="M43.0715 45.1429C43.0715 44.571 43.5354 44.1071 44.1073 44.1071H95.893C96.4649 44.1071 96.9288 44.571 96.9288 45.1429V77.25H99.0003V44.108C99.0003 42.9646 98.0713 42.0356 96.9279 42.0356H43.0724C41.929 42.0356 41 42.9646 41 44.108V77.25H43.0715V45.1429Z" fill="url(#paint5_linear)"/>
<path d="M82.9734 58.6073H71.0358V59.643C71.0358 60.2149 70.572 60.6788 70.0001 60.6788C69.4282 60.6788 68.9643 60.2149 68.9643 59.643V55.5C68.9643 54.9282 69.4282 54.4643 70.0001 54.4643C70.572 54.4643 71.0358 54.9282 71.0358 55.5V56.5358H82.9734L70.0001 50.4304L54.8257 57.5715L69.9998 64.7126L82.9734 58.6073Z" fill="url(#paint6_linear)"/>
<path d="M45.1431 77.2501H94.8574V46.1785H45.1431V77.2501ZM51.9517 56.6342L69.5589 48.3484C69.8386 48.217 70.1616 48.217 70.4413 48.3484C70.5053 48.3784 70.5697 48.4087 70.6338 48.4386C70.8141 48.5234 70.9953 48.6086 71.1754 48.6934C75.9676 50.9482 80.7599 53.2039 85.5531 55.4596C86.0751 55.7052 86.598 55.9517 87.1213 56.197C87.3304 56.2954 87.5386 56.3936 87.7468 56.4912C87.8503 56.5398 87.9612 56.5823 88.0606 56.6371C88.4201 56.8338 88.6426 57.2203 88.6426 57.6272V57.8861V66.3385V66.5788L90.5399 69.425C90.857 69.9005 90.7286 70.5447 90.2531 70.8615C90.0781 70.9796 89.8782 71.0356 89.6792 71.0356C89.3446 71.0356 89.0163 70.874 88.8164 70.5747L87.6065 68.76L86.3966 70.5747C86.1967 70.874 85.8696 71.0356 85.5338 71.0356C85.3372 71.0356 85.1373 70.9796 84.9599 70.8615C84.4844 70.5444 84.356 69.9014 84.6731 69.425L86.5705 66.5788V59.2028L83.4644 60.665V67.9287C83.4644 68.3211 83.2428 68.6797 82.8916 68.8556L70.4629 75.0698C70.317 75.1421 70.1583 75.1786 69.9999 75.1786C69.8415 75.1786 69.682 75.1424 69.5369 75.0698L57.1085 68.8556C56.7585 68.6806 56.5357 68.3211 56.5357 67.9287V60.665L51.9517 58.5075C51.588 58.3367 51.3573 57.971 51.3573 57.5702C51.3573 57.1695 51.588 56.805 51.9517 56.6342Z" fill="url(#paint7_linear)"/>
</g>
<defs>
<linearGradient id="paint0_linear" x1="70" y1="0" x2="70" y2="140" gradientUnits="userSpaceOnUse">
<stop stop-color="#DF7A03"/>
<stop offset="1" stop-color="#FEC739"/>
</linearGradient>
<linearGradient id="paint1_linear" x1="69.9993" y1="87.6074" x2="69.9993" y2="93.8216" gradientUnits="userSpaceOnUse">
<stop stop-color="#FEC739"/>
<stop offset="1" stop-color="#DF7A03"/>
</linearGradient>
<linearGradient id="paint2_linear" x1="70.0001" y1="95.8928" x2="70.0001" y2="97.9643" gradientUnits="userSpaceOnUse">
<stop stop-color="#FEC739"/>
<stop offset="1" stop-color="#DF7A03"/>
</linearGradient>
<linearGradient id="paint3_linear" x1="70" y1="79.3213" x2="70" y2="85.5355" gradientUnits="userSpaceOnUse">
<stop stop-color="#FEC739"/>
<stop offset="1" stop-color="#DF7A03"/>
</linearGradient>
<linearGradient id="paint4_linear" x1="70.0004" y1="61.6409" x2="70.0004" y2="72.9849" gradientUnits="userSpaceOnUse">
<stop stop-color="#FEC739"/>
<stop offset="1" stop-color="#DF7A03"/>
</linearGradient>
<linearGradient id="paint5_linear" x1="70.0001" y1="42.0356" x2="70.0001" y2="77.25" gradientUnits="userSpaceOnUse">
<stop stop-color="#FEC739"/>
<stop offset="1" stop-color="#DF7A03"/>
</linearGradient>
<linearGradient id="paint6_linear" x1="68.8995" y1="50.4304" x2="68.8995" y2="64.7126" gradientUnits="userSpaceOnUse">
<stop stop-color="#FEC739"/>
<stop offset="1" stop-color="#DF7A03"/>
</linearGradient>
<linearGradient id="paint7_linear" x1="70.0002" y1="46.1785" x2="70.0002" y2="77.2501" gradientUnits="userSpaceOnUse">
<stop stop-color="#FEC739"/>
<stop offset="1" stop-color="#DF7A03"/>
</linearGradient>
<clipPath id="clip0">
<rect x="41" y="41" width="58" height="58" fill="white"/>
</clipPath>
</defs>
</svg>
