<svg width="140" height="140" viewBox="0 0 140 140" fill="none" xmlns="http://www.w3.org/2000/svg">
<circle cx="70" cy="70" r="69" stroke="#FEC739" stroke-width="2"/>
<circle cx="70" cy="70" r="69" stroke="url(#paint0_linear)" stroke-width="2"/>
<g clip-path="url(#clip0)">
<path d="M73.5172 92.7007V88.0259H36V92.7195C36 96.9701 39.4348 100.483 43.686 100.483H77.2984C76.9761 100.19 76.6652 99.9326 76.3716 99.6384C74.5357 97.7968 73.5087 95.3008 73.5172 92.7007Z" fill="url(#paint1_linear)"/>
<path d="M62.5634 64.3611L68.0076 68.0988L73.4729 64.3611C74.9676 63.3416 76.1549 61.0408 76.1549 59.2318V51.5081L68.0213 47.4854L59.8877 51.4978V59.2318C59.8877 61.0402 61.0681 63.3416 62.5634 64.3611ZM63.7891 57.061C64.1915 56.6626 64.8413 56.6654 65.2397 57.0685L66.8747 58.7195L70.8098 54.7849C71.2105 54.3842 71.8603 54.3842 72.261 54.7855C72.6617 55.1862 72.6612 55.8359 72.2604 56.2367L67.5965 60.9028C67.4042 61.0958 67.1437 61.2057 66.8712 61.2068H66.8689C66.5953 61.2051 66.3337 61.0946 66.1425 60.8988L63.7816 58.5139C63.3832 58.1104 63.3866 57.4606 63.7891 57.061Z" fill="url(#paint2_linear)"/>
<path d="M98.5623 39.5173H98.5297C95.5156 39.5173 93.0088 42.0356 93.0088 45.0514V54.4656H104V45.0331C104.014 42.0116 101.584 39.5465 98.5623 39.5173Z" fill="url(#paint3_linear)"/>
<path d="M51.7496 39.5173C48.8993 39.5173 46.5797 41.8061 46.5797 44.6134L46.2769 85.9742H74.543C75.1184 85.9971 75.5723 86.4717 75.5689 87.0482V92.7007C75.5586 96.9742 79.0037 100.452 83.2766 100.483H83.3023C87.5598 100.452 90.986 96.9759 90.9568 92.7185V45.0531C90.9568 42.8966 91.9271 40.9829 93.3852 39.5173L51.7496 39.5173ZM57.8361 50.8579C57.823 50.4721 58.0342 50.1131 58.3783 49.9368L67.5652 45.4218C67.8474 45.2821 68.1783 45.2821 68.4606 45.4218L77.6641 49.9494C78.0082 50.1257 78.2194 50.4841 78.2068 50.8705V59.232C78.2068 61.7205 76.6881 64.6544 74.6312 66.0564L68.6042 70.189C68.4354 70.3052 68.235 70.3676 68.0301 70.3676C67.8257 70.3676 67.6265 70.3058 67.4587 70.189L61.414 66.0564C59.3583 64.6538 57.8361 61.7199 57.8361 59.232V50.8579ZM82.6034 81.2846H54.4654C53.8987 81.2846 53.4396 80.8255 53.4396 80.2587C53.4396 79.692 53.8987 79.2328 54.4654 79.2328H82.6034C83.1701 79.2328 83.6292 79.692 83.6292 80.2587C83.6292 80.8255 83.1701 81.2846 82.6034 81.2846ZM82.6034 75.8622H54.4654C53.8987 75.8622 53.4396 75.403 53.4396 74.8363C53.4396 74.2696 53.8987 73.8104 54.4654 73.8104H82.6034C83.1701 73.8104 83.6292 74.2696 83.6292 74.8363C83.6292 75.403 83.1701 75.8622 82.6034 75.8622Z" fill="url(#paint4_linear)"/>
</g>
<defs>
<linearGradient id="paint0_linear" x1="70" y1="0" x2="70" y2="140" gradientUnits="userSpaceOnUse">
<stop stop-color="#DF7A03"/>
<stop offset="1" stop-color="#FEC739"/>
</linearGradient>
<linearGradient id="paint1_linear" x1="56.6492" y1="88.0259" x2="56.6492" y2="100.483" gradientUnits="userSpaceOnUse">
<stop stop-color="#FEC739"/>
<stop offset="1" stop-color="#DF7A03"/>
</linearGradient>
<linearGradient id="paint2_linear" x1="68.0213" y1="47.4854" x2="68.0213" y2="68.0988" gradientUnits="userSpaceOnUse">
<stop stop-color="#FEC739"/>
<stop offset="1" stop-color="#DF7A03"/>
</linearGradient>
<linearGradient id="paint3_linear" x1="98.5045" y1="39.5173" x2="98.5045" y2="54.4656" gradientUnits="userSpaceOnUse">
<stop stop-color="#FEC739"/>
<stop offset="1" stop-color="#DF7A03"/>
</linearGradient>
<linearGradient id="paint4_linear" x1="69.831" y1="39.5173" x2="69.831" y2="100.483" gradientUnits="userSpaceOnUse">
<stop stop-color="#FEC739"/>
<stop offset="1" stop-color="#DF7A03"/>
</linearGradient>
<clipPath id="clip0">
<rect x="36" y="36" width="68" height="68" fill="white"/>
</clipPath>
</defs>
</svg>
