<svg width="140" height="140" viewBox="0 0 140 140" fill="none" xmlns="http://www.w3.org/2000/svg">
<circle cx="70" cy="70" r="69" stroke="#FEC739" stroke-width="2"/>
<circle cx="70" cy="70" r="69" stroke="url(#paint0_linear)" stroke-width="2"/>
<path d="M85.75 68.6285L99.9349 64.5815C100.622 64.3783 101.201 63.9139 101.549 63.288C101.898 62.6621 101.986 61.9247 101.797 61.234L95.8538 40.3985C95.7562 40.0564 95.5923 39.7369 95.3713 39.4582C95.1503 39.1795 94.8765 38.947 94.5657 38.7741C94.2548 38.6012 93.913 38.4912 93.5596 38.4505C93.2062 38.4097 92.8483 38.4389 92.5063 38.5365L53.4402 49.6827C53.0231 49.8079 52.6419 50.0309 52.3284 50.3331C52.0149 50.6354 51.778 51.0082 51.6377 51.4204C51.4973 51.8327 51.4574 52.2725 51.5213 52.7033C51.5852 53.1341 51.7511 53.5434 52.0052 53.8972L65.7625 72.5034C66.0923 72.9442 66.5477 73.275 67.0689 73.4524C67.5901 73.6298 68.1528 73.6455 68.6831 73.4974L80.3333 70.1739V92.1666C80.3333 92.8849 80.6187 93.5738 81.1266 94.0817C81.6345 94.5896 82.3234 94.8749 83.0416 94.8749H88.4583V89.4583H85.75V68.6285ZM92.4704 56.8354C92.9855 56.6885 93.5326 56.6977 94.0425 56.8618C94.5524 57.0259 95.0021 57.3375 95.3349 57.7572C95.6678 58.1769 95.8686 58.6858 95.9122 59.2197C95.9558 59.7535 95.84 60.2883 95.5797 60.7564C95.3193 61.2245 94.926 61.6049 94.4494 61.8495C93.9729 62.094 93.4345 62.1918 92.9024 62.1304C92.3703 62.069 91.8684 61.8512 91.46 61.5046C91.0517 61.1579 90.7553 60.698 90.6084 60.1829C90.5108 59.8408 90.4816 59.4829 90.5224 59.1295C90.5631 58.7762 90.6731 58.4343 90.846 58.1234C91.0189 57.8126 91.2514 57.5388 91.5301 57.3178C91.8088 57.0968 92.1283 56.9329 92.4704 56.8354ZM82.0528 59.8074C82.5679 59.6606 83.115 59.6698 83.6249 59.8339C84.1348 59.9979 84.5845 60.3095 84.9173 60.7292C85.2501 61.1489 85.451 61.6579 85.4946 62.1917C85.5382 62.7256 85.4224 63.2604 85.1621 63.7285C84.9017 64.1966 84.5084 64.577 84.0318 64.8215C83.5553 65.0661 83.0169 65.1639 82.4848 65.1025C81.9527 65.0411 81.4508 64.8233 81.0424 64.4766C80.6341 64.13 80.3377 63.67 80.1908 63.1549C80.0932 62.8129 80.064 62.4549 80.1047 62.1016C80.1455 61.7482 80.2555 61.4063 80.4284 61.0955C80.6013 60.7846 80.8338 60.5109 81.1125 60.2899C81.3912 60.0689 81.7107 59.9049 82.0528 59.8074Z" fill="url(#paint1_linear)"/>
<path d="M100.715 81.7394C100.323 81.4967 99.8744 81.3584 99.4132 81.3377C98.952 81.317 98.4931 81.4145 98.0802 81.621L92.6635 84.3293C92.214 84.5541 91.8358 84.8996 91.5714 85.3271C91.307 85.7546 91.1668 86.2472 91.1665 86.7499V97.5832C91.1665 98.0861 91.3066 98.5791 91.571 99.007C91.8354 99.4348 92.2137 99.7805 92.6635 100.005L98.0802 102.714C98.4939 102.913 98.951 103.005 99.4094 102.98C99.8678 102.956 100.313 102.817 100.703 102.576C101.094 102.335 101.417 101.999 101.644 101.6C101.87 101.2 101.993 100.751 102 100.292V84.0415C102 83.5802 101.881 83.1266 101.657 82.7237C101.432 82.3208 101.108 81.982 100.715 81.7394Z" fill="url(#paint2_linear)"/>
<path d="M48.9751 53.7729C48.6331 53.8705 48.3136 54.0344 48.0348 54.2554C47.7561 54.4764 47.5237 54.7502 47.3508 55.061C47.1779 55.3719 47.0679 55.7137 47.0271 56.0671C46.9864 56.4205 47.0156 56.7784 47.1132 57.1204L50.828 70.1425C51.031 70.8292 51.4954 71.409 52.1212 71.7572C52.7471 72.1053 53.4845 72.1941 54.1751 72.0044L60.6579 70.1546L49.8279 55.5073C49.4418 54.9851 49.153 54.3976 48.9751 53.7729Z" fill="url(#paint3_linear)"/>
<path d="M44.5081 57.8635L41.9034 58.6083C41.2167 58.8114 40.637 59.2758 40.2888 59.9016C39.9407 60.5275 39.8519 61.2649 40.0414 61.9555L42.2707 69.7687C42.4734 70.4559 42.9378 71.036 43.5639 71.3843C44.19 71.7325 44.9278 71.821 45.6186 71.6307L48.2223 70.8879L44.5081 57.8635Z" fill="url(#paint4_linear)"/>
<defs>
<linearGradient id="paint0_linear" x1="70" y1="0" x2="70" y2="140" gradientUnits="userSpaceOnUse">
<stop stop-color="#DF7A03"/>
<stop offset="1" stop-color="#FEC739"/>
</linearGradient>
<linearGradient id="paint1_linear" x1="76.6931" y1="38.4326" x2="76.6931" y2="94.8749" gradientUnits="userSpaceOnUse">
<stop stop-color="#FEC739"/>
<stop offset="1" stop-color="#DF7A03"/>
</linearGradient>
<linearGradient id="paint2_linear" x1="96.5832" y1="81.335" x2="96.5832" y2="102.984" gradientUnits="userSpaceOnUse">
<stop stop-color="#FEC739"/>
<stop offset="1" stop-color="#DF7A03"/>
</linearGradient>
<linearGradient id="paint3_linear" x1="53.8336" y1="53.7729" x2="53.8336" y2="72.1021" gradientUnits="userSpaceOnUse">
<stop stop-color="#FEC739"/>
<stop offset="1" stop-color="#DF7A03"/>
</linearGradient>
<linearGradient id="paint4_linear" x1="44.0831" y1="57.8635" x2="44.0831" y2="71.7289" gradientUnits="userSpaceOnUse">
<stop stop-color="#FEC739"/>
<stop offset="1" stop-color="#DF7A03"/>
</linearGradient>
</defs>
</svg>
