<svg width="17" height="14" viewBox="0 0 17 14" fill="none" xmlns="http://www.w3.org/2000/svg">
<path d="M14.4147 3.48905C14.4249 3.64217 14.4249 3.79532 14.4249 3.94844C14.4249 8.61873 11.1118 14 5.05636 14C3.1908 14 1.45779 13.4203 0 12.4141C0.265061 12.4469 0.519892 12.4578 0.79515 12.4578C2.33446 12.4578 3.75148 11.9 4.88305 10.9485C3.43546 10.9156 2.22234 9.89845 1.80437 8.49844C2.00827 8.53123 2.21214 8.55311 2.42624 8.55311C2.72187 8.55311 3.01752 8.50934 3.29275 8.43282C1.784 8.10467 0.652406 6.68281 0.652406 4.96562V4.92189C1.09074 5.18439 1.6005 5.34845 2.14076 5.3703C1.25385 4.73591 0.672803 3.65311 0.672803 2.4281C0.672803 1.77186 0.835881 1.1703 1.12134 0.645296C2.74223 2.78904 5.17868 4.18902 7.91071 4.34217C7.85975 4.07967 7.82916 3.80626 7.82916 3.53282C7.82916 1.58592 9.29714 2.46585e-08 11.1219 2.46585e-08C12.07 2.46585e-08 12.9263 0.426561 13.5278 1.11562C14.2719 0.962507 14.9855 0.66718 15.6176 0.262502C15.3729 1.08283 14.853 1.7719 14.17 2.20937C14.8326 2.13284 15.4749 1.93592 16.0661 1.66251C15.6176 2.36248 15.0569 2.9859 14.4147 3.48905Z" fill="#0B0802"/>
</svg>
